<svg width="512" height="512" version="1.1" viewBox="0 0 512 512" xmlns="http://www.w3.org/2000/svg" xmlns:xlink="http://www.w3.org/1999/xlink">
 <defs>
  <linearGradient id="d" x1="358.97" x2="359.12" y1="343.9" y2="275.44" gradientTransform="scale(.71203 1.4044)" gradientUnits="userSpaceOnUse">
   <stop stop-color="#4d4232" offset="0"/>
   <stop stop-color="#584c37" offset=".5"/>
   <stop stop-color="#5e523b" offset="1"/>
  </linearGradient>
  <linearGradient id="c" x1="127.74" x2="391.16" y1="149.58" y2="336.23" gradientTransform="matrix(.62471 0 0 .62471 861.64 5945.4)" gradientUnits="userSpaceOnUse">
   <stop stop-color="#364d32" offset="0"/>
   <stop stop-color="#3b5837" offset=".25646"/>
   <stop stop-color="#3f5e3b" offset="1"/>
  </linearGradient>
  <radialGradient id="b" cx="279.85" cy="281.51" r="133.52" gradientTransform="matrix(.13492 -2.0809 2.0142 .1306 -324.93 841.37)" gradientUnits="userSpaceOnUse">
   <stop stop-color="#5d8945" offset="0"/>
   <stop stop-color="#659843" offset=".25646"/>
   <stop stop-color="#6da748" offset="1"/>
  </radialGradient>
  <radialGradient id="a" cx="249.62" cy="251" r="223.62" gradientTransform="matrix(-2.367e-5 -1.0811 1.9074 -4.1581e-5 -222.74 525.87)" gradientUnits="userSpaceOnUse">
   <stop stop-color="#a59f41" offset="0"/>
   <stop stop-color="#c3bd52" offset="1"/>
  </radialGradient>
 </defs>
 <path d="m465.37 376.89-209.66 120.86-209.08-120.86 8e-6 -241.76 209.37-120.88 209.37 120.88z" fill="#dadada" stroke="url(#a)" stroke-linecap="round" stroke-linejoin="round" stroke-width="28.502" style="paint-order:markers fill stroke"/>
 <g stroke-opacity="0">
  <path d="m255.71 352.47-24.134 41.803v32.12l24.134 20.855 23.917-21.043v-32.308z" fill="url(#d)" style="paint-order:markers stroke fill"/>
  <path d="m256 56.227-24.133 41.801 28.473 49.316-138.27 239.5h48.268l28.473-49.316 28.473 49.318 24.135-41.803-28.473-49.318 61.531-106.57 56.363 97.623h48.266z" fill="url(#b)" style="paint-order:markers stroke fill"/>
  <path d="m226.8 105.29-105.21 182.24h48.268l28.473-49.318 57.385 99.395 24.143-41.814-57.393-99.381 28.473-49.316zm53.045 91.877-24.135 41.801 32.766 56.75-28.473 49.318 24.133 41.803 28.475-49.318 28.473 49.316h48.268z" fill="url(#c)" style="paint-order:markers stroke fill"/>
 </g>
</svg>
