<svg width="512" height="512" version="1.1" viewBox="0 0 512 512" xmlns="http://www.w3.org/2000/svg" xmlns:xlink="http://www.w3.org/1999/xlink">
 <defs>
  <linearGradient id="c" x1="358.97" x2="359.12" y1="343.9" y2="275.44" gradientTransform="scale(.71203 1.4044)" gradientUnits="userSpaceOnUse">
   <stop stop-color="#4d4232" offset="0"/>
   <stop stop-color="#584c37" offset=".5"/>
   <stop stop-color="#5e523b" offset="1"/>
  </linearGradient>
  <radialGradient id="a" cx="279.85" cy="281.51" r="133.52" gradientTransform="matrix(.13492 -2.0809 2.0142 .1306 -324.93 841.37)" gradientUnits="userSpaceOnUse">
   <stop stop-color="#5d8945" offset="0"/>
   <stop stop-color="#659843" offset=".25646"/>
   <stop stop-color="#6da748" offset="1"/>
  </radialGradient>
  <linearGradient id="b" x1="127.74" x2="391.16" y1="149.58" y2="336.23" gradientTransform="matrix(.62471 0 0 .62471 861.64 5945.4)" gradientUnits="userSpaceOnUse">
   <stop stop-color="#364d32" offset="0"/>
   <stop stop-color="#3b5837" offset=".25646"/>
   <stop stop-color="#3f5e3b" offset="1"/>
  </linearGradient>
 </defs>
 <g stroke-opacity="0">
  <path transform="matrix(1.3094 0 0 1.3094 -95.126 -73.622)" d="m255.71 352.47-24.134 41.803v32.12l24.134 20.855 23.917-21.043v-32.308z" fill="url(#c)" style="paint-order:markers stroke fill"/>
  <path transform="matrix(1.3094 0 0 1.3094 -95.126 -73.622)" d="m256 56.227-24.133 41.801 28.473 49.316-138.27 239.5h48.268l28.473-49.316 28.473 49.318 24.135-41.803-28.473-49.318 61.531-106.57 56.363 97.623h48.266z" fill="url(#a)" style="paint-order:markers stroke fill"/>
  <path transform="matrix(1.3094 0 0 1.3094 -95.126 -73.622)" d="m226.8 105.29-105.21 182.24h48.268l28.473-49.318 57.385 99.395 24.143-41.814-57.393-99.381 28.473-49.316zm53.045 91.877-24.135 41.801 32.766 56.75-28.473 49.318 24.133 41.803 28.475-49.318 28.473 49.316h48.268z" fill="url(#b)" style="paint-order:markers stroke fill"/>
 </g>
</svg>
