<svg xmlns="http://www.w3.org/2000/svg" width="1086.566" height="57.169" viewBox="0 0 1086.566 57.169"><path d="M169.567 5.261c-41.356 2.06-83.03 5.83-122.99 17.197-18.01 4.553-33.122 16.623-43.587 31.72 18.69-15.607 44.018-17.597 67.02-22.033 59.68-9.63 120.295-10.343 180.567-12.837q16.442-.56 32.885-1.082c-3.498-10.387-16.365-11.661-25.617-13.442-29.308-3.657-58.915-.768-88.278.477m747.432 0c41.356 2.06 83.03 5.83 122.99 17.197 18.01 4.553 33.122 16.623 43.587 31.72-18.688-15.607-44.018-17.597-67.021-22.033-59.68-9.63-120.294-10.343-180.566-12.837q-16.442-.56-32.885-1.082C806.602 7.84 819.469 6.565 828.72 4.784c29.308-3.657 58.915-.768 88.278.477" style="fill:#5d656d;fill-opacity:1;stroke:#000;stroke-width:5.983;stroke-linecap:round;stroke-linejoin:round;stroke-dasharray:none;stroke-opacity:1"/></svg>