<svg xmlns="http://www.w3.org/2000/svg" width="2613.333" height="2613.333" viewBox="0 0 2613.333 2613.333"><circle cx="2184.664" cy="1306.667" r="412.669" style="fill:#211e1e;fill-opacity:1;stroke:#0e0e0e;stroke-width:32;stroke-dasharray:none;stroke-opacity:1"/><circle cx="2184.664" cy="1306.667" r="412.669" style="display:inline;fill:#107893;fill-opacity:.74;stroke:#24d2f6;stroke-width:32;stroke-dasharray:none;stroke-opacity:1"/><path d="M2164.128 1134.16q66.683 0 99.542 19.811 32.858 19.329 32.858 65.717 0 20.778-7.731 36.724-7.248 15.463-21.745 25.61-14.013 10.148-33.825 14.014v2.416q20.295 3.383 37.208 12.564 16.912 8.698 27.06 25.61 10.147 16.913 10.147 43.973 0 31.408-14.98 53.636-14.98 21.745-42.04 33.342t-65.233 11.597h-123.703V1134.16zm7.731 144.48q40.59 0 55.57-13.53t14.98-39.14-18.363-37.207q-17.879-11.597-58.469-11.597h-51.22v101.474zm-57.502 41.557v115.971h62.817q42.04 0 58.47-16.43 16.428-16.912 16.428-43.488 0-16.43-7.248-28.993-7.248-12.564-24.644-19.812-16.912-7.248-45.905-7.248z" aria-label="B" style="font-weight:500;font-size:483.214px;font-family:&quot;Noto Sans&quot;;-inkscape-font-specification:&quot;Noto Sans Medium&quot;;fill:#d04242;stroke-width:12.8857"/></svg>