<svg xmlns="http://www.w3.org/2000/svg" xml:space="preserve" width="354.876" height="114.337" viewBox="0 0 354.876 114.337"><rect width="90.155" height="48.893" x="3.206" y="52.522" ry="24.446" style="fill:#211e1e;fill-opacity:1;stroke:#0d0d0d;stroke-width:5.02455;stroke-linecap:round;stroke-linejoin:round;stroke-opacity:1"/><path d="m321.673 78.861-20.671 11.935a1.522 1.522 30 0 1-2.284-1.319V65.608a1.522 1.522 150 0 1 2.284-1.318l20.67 11.934a1.522 1.522 90 0 1 0 2.637" style="fill:#dcdcdc;fill-opacity:1;stroke:none;stroke-width:5.411;stroke-linecap:round;stroke-linejoin:round;stroke-opacity:1" transform="matrix(-1.17622 0 0 1 413.588 -.574)"/><rect width="90.155" height="48.893" x="-352.364" y="52.522" ry="24.446" style="fill:#211e1e;fill-opacity:1;stroke:#0d0d0d;stroke-width:5.025;stroke-linecap:round;stroke-linejoin:round;stroke-dasharray:none;stroke-opacity:1" transform="scale(-1 1)"/><path d="m321.673 78.861-20.671 11.935a1.522 1.522 30 0 1-2.284-1.319V65.608a1.522 1.522 150 0 1 2.284-1.318l20.67 11.934a1.522 1.522 90 0 1 0 2.637" style="fill:#dcdcdc;fill-opacity:1;stroke:none;stroke-width:5.411;stroke-linecap:round;stroke-linejoin:round;stroke-opacity:1" transform="matrix(1.17622 0 0 1 -58.019 -.574)"/><circle cx="177.438" cy="57.169" r="54.762" style="fill:#211e1e;fill-opacity:1;stroke:#0d0d0d;stroke-width:4.81345;stroke-linecap:round;stroke-linejoin:round;stroke-dasharray:none;stroke-opacity:1"/><path d="M195.889 24.084c-10.808 0-19.6 8.875-19.6 19.78v.253L163.9 62.24q-.404-.023-.818-.023c-3.067 0-5.92.95-8.28 2.58l-26.107-10.892a50 50 0 0 0-.122 3.477 49.7 49.7 0 0 0 2.388 15.222l17.696 7.383c1.347 6.791 7.305 11.922 14.425 11.922 8.11 0 14.71-6.66 14.71-14.85q0-.348-.018-.702l17.67-12.72c.15.005.295.009.445.009 10.807 0 19.6-8.878 19.6-19.783 0-10.904-8.793-19.779-19.6-19.779m.002 6.597c7.198 0 13.058 5.916 13.058 13.182s-5.86 13.178-13.058 13.178c-7.203 0-13.063-5.912-13.063-13.178s5.86-13.182 13.063-13.182m.019 3.261c-5.415 0-9.81 4.432-9.81 9.9 0 5.466 4.395 9.897 9.81 9.897 5.418 0 9.813-4.43 9.813-9.898 0-5.467-4.395-9.899-9.813-9.899m-32.728 31.952c1.38.01 2.78.284 4.131.85a11.02 11.02 0 0 1 5.96 6.043 11.17 11.17 0 0 1-.018 8.526c-2.34 5.673-8.818 8.362-14.435 5.999-2.6-1.092-4.558-3.081-5.688-5.46l6.384 2.663c4.143 1.743 8.904-.236 10.628-4.417 1.728-4.18-.232-8.982-4.376-10.725l-6.597-2.752a11 11 0 0 1 4.01-.727" style="fill:#dcdcdc;fill-opacity:1;stroke-width:5.37976;stroke-linecap:round;stroke-linejoin:round"/></svg>